<?xml version="1.0" encoding="UTF-8" standalone="no"?>
<!-- Created with Inkscape (http://www.inkscape.org/) -->

<svg
   width="155.86284mm"
   height="115.25653mm"
   viewBox="0 0 155.86284 115.25653"
   version="1.1"
   id="svg1"
   xml:space="preserve"
   xmlns="http://www.w3.org/2000/svg"
   xmlns:svg="http://www.w3.org/2000/svg"><defs
     id="defs1" /><g
     id="layer1"
     transform="translate(-22.866988,-88.040441)"><path
       style="fill:#cfd1d3;fill-opacity:1;stroke-width:0.264583"
       d="m 48.769372,149.41328 12.504965,21.65924 H 71.601476 L 64.817383,145.75394 H 46.394834 Z"
       id="path14" /><circle
       style="fill:#0e66af;fill-opacity:1;stroke-width:0.285348"
       id="path12"
       cx="121.46367"
       cy="145.66872"
       r="55.021259" /><path
       style="fill:#0e66af;fill-opacity:1;stroke-width:0.264583"
       d="M 73.610701,119.64022 31.05166,119.09225 46.212176,144.11624 H 72.697415 Z"
       id="path13" /><path
       style="fill:#0e66af;fill-opacity:1;stroke-width:0.308051"
       id="path11"
       d="m 77.098145,145.12085 a 44.459999,44.659595 0 0 1 44.459995,-44.6596 44.459999,44.659595 0 0 1 44.46,44.6596 h -44.46 z" /><path
       style="fill:#cfd1d3;fill-opacity:1;stroke-width:0.308051"
       id="path9"
       d="m 166.01814,145.12085 a 44.459999,44.659595 0 0 1 -22.23,38.67634 44.459999,44.659595 0 0 1 -44.459997,0 44.459999,44.659595 0 0 1 -22.229998,-38.67634 h 44.459995 z" /><path
       id="path10"
       style="fill:#ffffff;fill-opacity:1;stroke-width:0.264583"
       d="m 121.10131,88.040443 c -19.61843,0.0083 -37.392786,9.972975 -47.855484,26.084717 l -50.378838,-0.1633 35.024219,62.30007 h 14.380518 c 10.193237,16.23482 28.245365,27.03497 48.829585,27.03505 31.82718,1.6e-4 57.6284,-25.80082 57.62852,-57.62801 1.6e-4,-31.82739 -25.80114,-57.628689 -57.62852,-57.628527 z m 0,7.306531 c 27.79205,-2e-5 50.32201,22.529946 50.32199,50.321996 2e-5,27.79205 -22.52994,50.32201 -50.32199,50.32199 -27.791863,-2.6e-4 -50.321504,-22.53014 -50.321484,-50.32199 0.04948,-1.59184 0.174509,-3.18045 0.374654,-4.76043 h -7.340637 c -3.51e-4,0.003 -6.83e-4,0.006 -10e-4,0.009 H 46.612309 l -11.271147,-19.53628 33.86305,0.0574 c -8.15e-4,0.002 -0.0018,0.003 -0.0026,0.005 l 0.137459,-0.005 7.662065,0.0129 0.09095,-0.28164 0.01757,-5.2e-4 C 85.929431,105.11153 102.78008,95.389121 121.10131,95.346974 Z M 51.315898,149.68578 h 12.312427 c 0.477278,6.92382 2.175611,13.50752 4.884456,19.54402 h -6.146395 z" /><path
       style="fill:#ffffff;fill-opacity:1;stroke-width:0.264583"
       d="m 81.022047,146.04103 h 79.561263 v -1.67905 H 80.376257 Z"
       id="path6" /><path
       style="fill:#ffffff;fill-opacity:1;stroke-width:0.264583"
       d="m 112.69926,130.32565 -12.51875,-7.22771 -8.681323,15.03649 12.821343,7.4024 -12.827963,7.40623 8.552883,14.81401 12.80369,-7.39222 v 14.80305 h 17.11119 v -14.52122 l 12.38177,7.14861 8.60834,-14.91009 -12.65539,-7.30659 12.61716,-7.28453 -8.65114,-14.98421 -12.42166,7.17165 v -14.58576 h -17.14015 z"
       id="path7" /><path
       id="path5"
       style="fill:#ffffff;fill-opacity:1;stroke-width:0.277156"
       d="m 121.19277,98.999981 a 46.303501,46.303501 0 0 0 -46.303634,46.303639 46.303501,46.303501 0 0 0 46.303634,46.30363 46.303501,46.303501 0 0 0 46.30364,-46.30363 46.303501,46.303501 0 0 0 -46.30364,-46.303639 z m 0,5.607409 a 38.89941,40.696148 0 0 1 38.89944,40.69623 38.89941,40.696148 0 0 1 -38.89944,40.69622 38.89941,40.696148 0 0 1 -38.899435,-40.69622 38.89941,40.696148 0 0 1 38.899435,-40.69623 z" /><path
       style="fill:#c1171d;fill-opacity:1;stroke-width:0.264583"
       d="m 95.255527,136.90129 14.344893,8.28202 -14.665063,8.46688 5.863663,10.15616 14.57344,-8.41398 v 17.30966 h 11.30005 v -17.62638 l 14.51083,8.37783 5.60566,-9.7093 -14.18199,-8.18797 14.5503,-8.40062 -5.8659,-10.16004 -14.73938,8.50979 v -17.23505 h -11.02159 v 17.26107 l -14.60827,-8.43409 z"
       id="path8" /></g></svg>
